<svg xmlns="http://www.w3.org/2000/svg" width="90" height="90" viewBox="0 0 90 90">
  <path id="check-circle" d="M53,8A45,45,0,1,0,98,53,45,45,0,0,0,53,8Zm0,84.194A39.194,39.194,0,1,1,92.194,53,39.191,39.191,0,0,1,53,92.194ZM78.7,42.3,45.951,74.787a2.177,2.177,0,0,1-3.079-.012L27.289,59.066a2.177,2.177,0,0,1,.012-3.079l1.546-1.533a2.177,2.177,0,0,1,3.079.012L44.442,67.083,74.1,37.664a2.177,2.177,0,0,1,3.079.012l1.533,1.546A2.177,2.177,0,0,1,78.7,42.3Z" transform="translate(-8 -8)" fill="#f5f8fa"/>
</svg>
