<svg xmlns="http://www.w3.org/2000/svg" width="64" height="64" viewBox="0 0 64 64">
  <g id="Group_6" data-name="Group 6" transform="translate(-295 -79)">
    <g id="Rectangle_5" data-name="Rectangle 5" transform="translate(295 79)" fill="#f5f8fa" stroke="#ccd6dd" stroke-width="1">
      <rect width="64" height="64" stroke="none"/>
      <rect x="0.5" y="0.5" width="63" height="63" fill="none"/>
    </g>
    <path id="camera" d="M18.1,33.786a.453.453,0,0,1,.419.29l1.233,3.281h6.144a.9.9,0,0,1,.893.893V54.321a.9.9,0,0,1-.893.893H2.679a.9.9,0,0,1-.893-.893V38.25a.9.9,0,0,1,.893-.893h6.15L9.95,34.366a.9.9,0,0,1,.837-.58H18.1M18.1,32h-7.31a2.675,2.675,0,0,0-2.506,1.735l-.692,1.836H2.679A2.679,2.679,0,0,0,0,38.25V54.321A2.679,2.679,0,0,0,2.679,57H25.893a2.679,2.679,0,0,0,2.679-2.679V38.25a2.679,2.679,0,0,0-2.679-2.679H20.982l-.8-2.121A2.219,2.219,0,0,0,18.1,32ZM14.286,52.982a6.7,6.7,0,1,1,6.7-6.7A6.7,6.7,0,0,1,14.286,52.982Zm0-11.607A4.911,4.911,0,1,0,19.2,46.286,4.918,4.918,0,0,0,14.286,41.375Z" transform="translate(313 67)" fill="#99aab5"/>
  </g>
</svg>
